<svg xmlns="http://www.w3.org/2000/svg" xmlns:xlink="http://www.w3.org/1999/xlink" viewBox="0 0 175 23.24"><defs><style>.cls-1{isolation:isolate;}.cls-2{fill:none;}.cls-3{fill:#005e87;}.cls-11,.cls-4,.cls-5,.cls-6,.cls-7,.cls-9{mix-blend-mode:soft-light;}.cls-4{fill:url(#Unbenannter_Verlauf_50);}.cls-5{fill:url(#Unbenannter_Verlauf_50-2);}.cls-6{fill:url(#Unbenannter_Verlauf_50-3);}.cls-7{fill:url(#Unbenannter_Verlauf_50-4);}.cls-8{fill:#00fda1;}.cls-9{fill:url(#Unbenannter_Verlauf_50-5);}.cls-10{fill:#0066e6;}.cls-11{fill:url(#Unbenannter_Verlauf_50-6);}</style><linearGradient id="Unbenannter_Verlauf_50" x1="13.15" y1="-7.97" x2="32.24" y2="25.11" gradientTransform="translate(-4 0)" gradientUnits="userSpaceOnUse"><stop offset="0" stop-color="#fff"/><stop offset="1" stop-color="#00fc00"/></linearGradient><linearGradient id="Unbenannter_Verlauf_50-2" x1="6.26" y1="-3.99" x2="25.35" y2="29.09" xlink:href="#Unbenannter_Verlauf_50"/><linearGradient id="Unbenannter_Verlauf_50-3" x1="0.79" y1="-0.83" x2="19.89" y2="32.24" xlink:href="#Unbenannter_Verlauf_50"/><linearGradient id="Unbenannter_Verlauf_50-4" x1="1.9" y1="-1.47" x2="21" y2="31.6" xlink:href="#Unbenannter_Verlauf_50"/><linearGradient id="Unbenannter_Verlauf_50-5" x1="9.73" y1="-5.99" x2="28.82" y2="27.08" xlink:href="#Unbenannter_Verlauf_50"/><linearGradient id="Unbenannter_Verlauf_50-6" x1="4.7" y1="-3.09" x2="23.8" y2="29.98" xlink:href="#Unbenannter_Verlauf_50"/></defs><g class="cls-1"><g id="Ebene_1" data-name="Ebene 1"><path class="cls-2" d="M103,5H98.73V18.29H103c4.43,0,7-2.46,7-6.7S107.43,5,103,5Z"/><path class="cls-3" d="M41.64,2.65H33.89V20.59h2.6V14h5.15c4.22,0,6.41-2,6.41-5.67S45.86,2.65,41.64,2.65Zm-.1,9h-5V5h5c2.59,0,3.89,1.1,3.89,3.35S44.13,11.67,41.54,11.67Z"/><polygon class="cls-3" points="66.17 10.35 55.72 10.35 55.72 2.65 53.13 2.65 53.13 20.59 55.72 20.59 55.72 12.64 66.17 12.64 66.17 20.59 68.77 20.59 68.77 2.65 66.17 2.65 66.17 10.35"/><path class="cls-3" d="M103.14,2.65h-7V20.59h7c6,0,9.5-3.35,9.5-9S109.1,2.65,103.14,2.65ZM103,18.29H98.73V5H103c4.43,0,7,2.45,7,6.64S107.43,18.29,103,18.29Z"/><polygon class="cls-3" points="119.34 20.59 132.47 20.59 132.47 18.29 121.93 18.29 121.93 12.67 130.52 12.67 130.52 10.38 121.93 10.38 121.93 4.95 132.47 4.95 132.47 2.65 119.34 2.65 119.34 20.59"/><polygon class="cls-3" points="152.67 17.1 152.62 17.1 143.03 2.65 139.41 2.65 139.41 20.59 141.9 20.59 141.9 5.27 141.95 5.27 152.03 20.59 155.16 20.59 155.16 2.65 152.67 2.65 152.67 17.1"/><polygon class="cls-3" points="160.6 2.65 160.6 4.95 166.52 4.95 166.52 20.59 169.11 20.59 169.11 4.95 175 4.95 175 2.65 160.6 2.65"/><polygon class="cls-3" points="83.46 10.55 77.71 2.65 74.55 2.65 81.99 12.55 76.08 20.59 79.13 20.59 92.32 2.65 89.27 2.65 83.46 10.55"/><path class="cls-4" d="M17.55,1.29a9.87,9.87,0,0,1,5,8.55v13.4h0V9.84A9.87,9.87,0,0,0,17.55,1.29Z"/><polygon class="cls-5" points="0 0 6.25 6.45 6.25 6.45 22.54 23.24 0 0 0 0"/><path class="cls-6" d="M10.29,22.53h0Z"/><path class="cls-7" d="M13.36,23.24h0a6.91,6.91,0,0,1-2.69-.54A6.91,6.91,0,0,0,13.36,23.24Z"/><path class="cls-8" d="M17.55,1.29A9.73,9.73,0,0,0,12.7,0H0L22.54,23.24V9.84A9.87,9.87,0,0,0,17.55,1.29Z"/><path class="cls-9" d="M17.55,1.29A9.73,9.73,0,0,0,12.7,0H0L22.54,23.24V9.84A9.87,9.87,0,0,0,17.55,1.29Z"/><path class="cls-10" d="M6.25,6.45h0v9.68a7.15,7.15,0,0,0,4,6.4h0l.38.17a6.91,6.91,0,0,0,2.69.54h9.18L6.25,6.45Z"/><path class="cls-11" d="M6.25,6.45h0v9.68a7.15,7.15,0,0,0,4,6.4h0l.38.17a6.91,6.91,0,0,0,2.69.54h9.18L6.25,6.45Z"/></g></g></svg>